<svg width="95" height="92" viewBox="0 0 95 92" fill="none" xmlns="http://www.w3.org/2000/svg">
<path fill-rule="evenodd" clip-rule="evenodd" d="M30 19C30 11.268 36.268 5 44 5C51.732 5 58 11.268 58 19H44H30ZM63 19H80C88.2843 19 95 25.7157 95 34V77C95 85.2843 88.2843 92 80 92H15C6.71573 92 0 85.2843 0 77V34C0 25.7157 6.71573 19 15 19H25C25 8.50659 33.5066 0 44 0C54.4934 0 63 8.50659 63 19ZM34 72H71V85H34V72Z" fill="white"/>
<path d="M27 42.5C27 39.4624 24.5376 37 21.5 37C18.4624 37 16 39.4624 16 42.5V52.5C16 55.5376 18.4624 58 21.5 58C24.5376 58 27 55.5376 27 52.5V42.5Z" fill="black"/>
<path d="M77 37.5C77 33.9101 74.0899 31 70.5 31C66.9101 31 64 33.9101 64 37.5V51.5C64 55.0899 66.9101 58 70.5 58C74.0899 58 77 55.0899 77 51.5V37.5Z" fill="black"/>
</svg>
